<svg width="79" height="86" viewBox="0 0 79 86" fill="none" xmlns="http://www.w3.org/2000/svg">
<g opacity="0.2" clip-path="url(#clip0_1713_23175)">
<path d="M25.136 60.0563L56.9802 63.9663L57.7622 57.5975L25.918 53.6875L25.136 60.0563Z" fill="#D8003E"/>
<path d="M58.5436 51.229L26.6995 47.319L27.4814 40.9502L59.3256 44.8602L58.5436 51.229Z" fill="#D8003E"/>
<path d="M28.2639 34.5812L41.0016 36.1452L41.7836 29.7764L29.0459 28.2124L28.2639 34.5812Z" fill="#D8003E"/>
<path fill-rule="evenodd" clip-rule="evenodd" d="M28.2076 8.71498C22.9314 8.06716 18.1291 11.8191 17.4813 17.0952L12.0073 61.6771C11.3595 66.9534 15.1115 71.7555 20.3876 72.4034L58.6006 77.0953C63.8769 77.7432 68.679 73.9913 69.3269 68.7151L73.2369 36.8709C74.7484 24.5599 65.9939 13.3546 53.6829 11.843L28.2076 8.71498ZM27.4256 15.0838L49.7165 17.8208L47.7615 33.7429L66.868 36.0889L62.958 67.9331C62.7421 69.6918 61.1414 70.9424 59.3826 70.7265L21.1696 66.0345C19.4109 65.8186 18.1602 64.2179 18.3762 62.4591L23.8501 17.8772C24.0661 16.1186 25.6669 14.8679 27.4256 15.0838ZM56.0462 18.9213C61.0494 20.5929 64.8538 24.622 66.3253 29.5574L54.9123 28.1561L56.0462 18.9213Z" fill="#D8003E"/>
<g clip-path="url(#clip1_1713_23175)">
<path d="M52.7771 46.0907L32.5169 72.0955C32.0966 72.6532 31.8296 73.3114 31.7425 74.0044C31.6554 74.6974 31.7514 75.4011 32.0207 76.0455C32.29 76.6899 32.7234 77.2526 33.2777 77.6775C33.8321 78.1024 34.488 78.3748 35.1802 78.4675L68.8077 82.5965C69.5018 82.674 70.2041 82.5684 70.8448 82.2902C71.4854 82.0119 72.0421 81.5708 72.4593 81.0107C72.8765 80.4506 73.1399 79.791 73.223 79.0975C73.3062 78.4041 73.2064 77.7009 72.9334 77.058L59.5661 46.9243C59.2839 46.2975 58.8448 45.7539 58.2914 45.3462C57.7379 44.9384 57.0886 44.6802 56.4063 44.5964C55.7239 44.5126 55.0315 44.6061 54.3958 44.8679C53.7601 45.1296 53.2026 45.5508 52.7771 46.0907Z" fill="#FFBEBF" stroke="#D8003E" stroke-width="5" stroke-linecap="round" stroke-linejoin="round"/>
<path d="M54.9268 56.5044L53.9518 64.4448" stroke="#D8003E" stroke-width="5" stroke-linecap="round" stroke-linejoin="round"/>
<path d="M52.9766 72.3862L52.9964 72.3887" stroke="#D8003E" stroke-width="5" stroke-linecap="round" stroke-linejoin="round"/>
</g>
</g>
<defs>
<clipPath id="clip0_1713_23175">
<rect width="77" height="77" fill="white" transform="translate(9.88281) rotate(7)"/>
</clipPath>
<clipPath id="clip1_1713_23175">
<rect width="48" height="48" fill="white" transform="translate(33.2988 35.7139) rotate(7)"/>
</clipPath>
</defs>
</svg>
