<svg width="87" height="86" viewBox="0 0 87 86" fill="none" xmlns="http://www.w3.org/2000/svg">
<g opacity="0.2">
<path d="M60.1086 47.3187L28.2644 51.2287L27.4824 44.8599L59.3266 40.9499L60.1086 47.3187Z" fill="#888888"/>
<path d="M26.7009 38.4909L39.4386 36.9269L38.6566 30.5581L25.9189 32.1221L26.7009 38.4909Z" fill="#888888"/>
<path fill-rule="evenodd" clip-rule="evenodd" d="M20.3882 13.4066C15.1121 14.0544 11.3601 18.8567 12.008 24.1328L17.4819 68.7147C18.1298 73.991 22.9321 77.7428 28.2082 77.095L66.4212 72.403C71.6975 71.7552 75.4493 66.953 74.8015 61.6768L70.8915 29.8326C69.3799 17.5216 58.1745 8.76702 45.8636 10.2786L20.3882 13.4066ZM21.1702 19.7754L43.4611 17.0385L45.4161 32.9605L64.5226 30.6146L68.4326 62.4587C68.6486 64.2175 67.398 65.8182 65.6392 66.0342L27.4262 70.7261C25.6675 70.9421 24.0667 69.6915 23.8508 67.9327L18.3768 23.3509C18.1609 21.5922 19.4115 19.9914 21.1702 19.7754ZM49.8691 16.575C55.128 16.9865 59.7942 19.9756 62.4159 24.4084L51.003 25.8097L49.8691 16.575Z" fill="#888888"/>
<path d="M57.2138 41.6519C58.224 41.5797 59.2094 41.8553 60.0304 42.498L60.1927 42.6313L60.3477 42.773C61.0429 43.4387 61.4467 44.2879 61.5617 45.2091C62.206 44.7084 62.9727 44.4298 63.7869 44.3715L63.9889 44.361C64.928 44.3369 65.8373 44.6176 66.6035 45.2176L66.7658 45.3509L66.9208 45.4916C67.6739 46.2126 68.0868 47.1489 68.1592 48.159L68.5483 53.5982L73.3076 53.2578L74.1102 64.4781C74.4253 68.8836 73.1346 72.8189 70.2631 76.1329C67.3915 79.447 63.6801 81.2847 59.2746 81.5999C54.8689 81.915 50.9329 80.6244 47.6188 77.7528C44.3049 74.8812 42.4671 71.1697 42.1519 66.7643L41.0736 51.6915C40.9966 50.614 41.3151 49.5643 42.053 48.7126L42.1947 48.5576C42.9158 47.8047 43.8521 47.3914 44.8621 47.3192L45.0631 47.3097C45.8072 47.2905 46.5326 47.4622 47.183 47.8326C47.1644 46.8372 47.4874 45.8765 48.1722 45.0861L48.3138 44.9311C49.035 44.1779 49.9711 43.7649 50.9813 43.6927L51.1832 43.6831C52.0521 43.6609 52.895 43.8993 53.6232 44.4103C53.7864 43.9216 54.0456 43.4599 54.4047 43.0454L54.5464 42.8903C55.2675 42.1372 56.2037 41.7242 57.2138 41.6519ZM62.4466 70.2107C62.2406 70.2255 62.1289 70.2778 61.9827 70.4466C61.8367 70.6151 61.8006 70.7326 61.8152 70.9383L61.9295 72.5358C62.7268 72.1031 63.4404 71.5196 64.083 70.778C64.2878 70.5417 64.4746 70.2998 64.646 70.0534L62.4466 70.2107ZM50.3126 66.1805C50.4727 68.4166 51.3474 70.1635 52.9737 71.5727C53.2102 71.7776 53.4528 71.9642 53.6993 72.1357L53.6554 71.522C53.483 69.1104 54.2182 66.9203 55.8027 65.0917C56.0657 64.7881 56.3435 64.5078 56.6323 64.2481L50.2073 64.7077L50.3126 66.1805Z" fill="#888888" stroke="#DCDCDC" stroke-width="5"/>
</g>
</svg>
