<svg width="21" height="21" viewBox="0 0 21 21" fill="none" xmlns="http://www.w3.org/2000/svg">
<path d="M10.1465 7.70242C11.6465 7.70242 12.8738 8.92969 12.8738 10.4297C12.8738 11.9297 11.6465 13.157 10.1465 13.157C8.64648 13.157 7.41921 11.9297 7.41921 10.4297C7.41921 8.92969 8.64648 7.70242 10.1465 7.70242ZM10.1465 5.88423C7.63739 5.88423 5.60103 7.9206 5.60103 10.4297C5.60103 12.9388 7.63739 14.9751 10.1465 14.9751C12.6556 14.9751 14.6919 12.9388 14.6919 10.4297C14.6919 7.9206 12.6556 5.88423 10.1465 5.88423ZM1.05558 11.3388H2.87376C3.37376 11.3388 3.78285 10.9297 3.78285 10.4297C3.78285 9.92969 3.37376 9.5206 2.87376 9.5206H1.05558C0.555575 9.5206 0.146484 9.92969 0.146484 10.4297C0.146484 10.9297 0.555575 11.3388 1.05558 11.3388ZM17.4192 11.3388H19.2374C19.7374 11.3388 20.1465 10.9297 20.1465 10.4297C20.1465 9.92969 19.7374 9.5206 19.2374 9.5206H17.4192C16.9192 9.5206 16.5101 9.92969 16.5101 10.4297C16.5101 10.9297 16.9192 11.3388 17.4192 11.3388ZM9.23739 1.33878V3.15696C9.23739 3.65696 9.64648 4.06605 10.1465 4.06605C10.6465 4.06605 11.0556 3.65696 11.0556 3.15696V1.33878C11.0556 0.838778 10.6465 0.429688 10.1465 0.429688C9.64648 0.429688 9.23739 0.838778 9.23739 1.33878ZM9.23739 17.7024V19.5206C9.23739 20.0206 9.64648 20.4297 10.1465 20.4297C10.6465 20.4297 11.0556 20.0206 11.0556 19.5206V17.7024C11.0556 17.2024 10.6465 16.7933 10.1465 16.7933C9.64648 16.7933 9.23739 17.2024 9.23739 17.7024ZM4.68285 3.68423C4.59874 3.59996 4.49885 3.5331 4.38887 3.48748C4.27889 3.44186 4.161 3.41837 4.04194 3.41837C3.92288 3.41837 3.80498 3.44186 3.69501 3.48748C3.58503 3.5331 3.48513 3.59996 3.40103 3.68423C3.31675 3.76834 3.24989 3.86824 3.20427 3.97821C3.15865 4.08819 3.13517 4.20608 3.13517 4.32514C3.13517 4.4442 3.15865 4.5621 3.20427 4.67207C3.24989 4.78205 3.31675 4.88195 3.40103 4.96605L4.36467 5.92969C4.71921 6.28423 5.30103 6.28423 5.64648 5.92969C5.99194 5.57514 6.00103 4.99332 5.64648 4.64787L4.68285 3.68423ZM15.9283 14.9297C15.8442 14.8454 15.7443 14.7786 15.6343 14.7329C15.5243 14.6873 15.4065 14.6638 15.2874 14.6638C15.1683 14.6638 15.0504 14.6873 14.9405 14.7329C14.8305 14.7786 14.7306 14.8454 14.6465 14.9297C14.5622 15.0138 14.4953 15.1137 14.4497 15.2237C14.4041 15.3336 14.3806 15.4515 14.3806 15.5706C14.3806 15.6897 14.4041 15.8076 14.4497 15.9175C14.4953 16.0275 14.5622 16.1274 14.6465 16.2115L15.6101 17.1751C15.9647 17.5297 16.5465 17.5297 16.8919 17.1751C16.9762 17.091 17.0431 16.9911 17.0887 16.8812C17.1343 16.7712 17.1578 16.6533 17.1578 16.5342C17.1578 16.4152 17.1343 16.2973 17.0887 16.1873C17.0431 16.0773 16.9762 15.9774 16.8919 15.8933L15.9283 14.9297ZM16.8919 4.96605C16.9762 4.88195 17.0431 4.78205 17.0887 4.67207C17.1343 4.5621 17.1578 4.4442 17.1578 4.32514C17.1578 4.20608 17.1343 4.08819 17.0887 3.97821C17.0431 3.86824 16.9762 3.76834 16.8919 3.68423C16.8078 3.59996 16.7079 3.5331 16.598 3.48748C16.488 3.44186 16.3701 3.41837 16.251 3.41837C16.132 3.41837 16.0141 3.44186 15.9041 3.48748C15.7941 3.5331 15.6942 3.59996 15.6101 3.68423L14.6465 4.64787C14.2919 5.00241 14.2919 5.58423 14.6465 5.92969C15.001 6.27514 15.5828 6.28423 15.9283 5.92969L16.8919 4.96605ZM5.64648 16.2115C5.73076 16.1274 5.79762 16.0275 5.84324 15.9175C5.88886 15.8076 5.91234 15.6897 5.91234 15.5706C5.91234 15.4515 5.88886 15.3336 5.84324 15.2237C5.79762 15.1137 5.73076 15.0138 5.64648 14.9297C5.56238 14.8454 5.46248 14.7786 5.35251 14.7329C5.24253 14.6873 5.12464 14.6638 5.00558 14.6638C4.88651 14.6638 4.76862 14.6873 4.65864 14.7329C4.54867 14.7786 4.44877 14.8454 4.36467 14.9297L3.40103 15.8933C3.04648 16.2479 3.04648 16.8297 3.40103 17.1751C3.75558 17.5206 4.33739 17.5297 4.68285 17.1751L5.64648 16.2115Z" fill="#1E1E1E" stroke="#1E1E1E" stroke-width="0.2"/>
</svg>
