<svg width="87" height="82" viewBox="0 0 87 82" fill="none" xmlns="http://www.w3.org/2000/svg">
<g opacity="0.2">
<path fill-rule="evenodd" clip-rule="evenodd" d="M28.2076 8.71498C22.9314 8.06716 18.1291 11.8191 17.4813 17.0952L12.0073 61.6771C11.3595 66.9534 15.1115 71.7555 20.3876 72.4034L58.6006 77.0953C63.8769 77.7432 68.679 73.9913 69.3269 68.7151L73.2369 36.8709C74.7484 24.5599 65.9939 13.3546 53.6829 11.843L28.2076 8.71498ZM27.4256 15.0838L49.7165 17.8208L47.7615 33.7429L66.868 36.0889L62.958 67.9331C62.7421 69.6918 61.1414 70.9424 59.3826 70.7265L21.1696 66.0345C19.4109 65.8186 18.1602 64.2179 18.3762 62.4591L23.8501 17.8772C24.0661 16.1186 25.6669 14.8679 27.4256 15.0838ZM56.0462 18.9213C61.0494 20.5929 64.8538 24.622 66.3253 29.5574L54.9123 28.1561L56.0462 18.9213Z" fill="#AD8700"/>
</g>
</svg>
