<svg width="14" height="14" viewBox="0 0 14 14" fill="none" xmlns="http://www.w3.org/2000/svg">
<path d="M2.3841 12.2625C2.20121 12.1019 2.02672 11.9319 1.86137 11.7533C1.79208 11.6785 1.72439 11.6021 1.65841 11.5243C0.623874 10.3042 0 8.72496 0 7C0 3.13404 3.13404 0 7 0C10.866 0 14 3.13404 14 7C14 8.72498 13.3761 10.3042 12.3416 11.5243C12.2756 11.6021 12.2079 11.6785 12.1386 11.7533C11.9733 11.9319 11.7988 12.1019 11.6159 12.2625H2.3841Z" fill="white"/>
<path d="M11.6165 12.263C10.3843 13.3446 8.76897 14.0005 7.00065 14.0005C5.23232 14.0005 3.61697 13.3446 2.38477 12.263C3.42128 10.6176 5.10259 9.54785 7.00065 9.54785C8.8987 9.54785 10.58 10.6177 11.6165 12.263Z" fill="#AB2FFF"/>
<path d="M6.9991 8.37711C8.56054 8.37711 9.82633 7.11132 9.82633 5.54988C9.82633 3.98845 8.56054 2.72266 6.9991 2.72266C5.43767 2.72266 4.17188 3.98845 4.17188 5.54988C4.17188 7.11132 5.43767 8.37711 6.9991 8.37711Z" fill="#AB2FFF"/>
</svg>
