<svg width="86" height="79" viewBox="0 0 86 79" fill="none" xmlns="http://www.w3.org/2000/svg">
<g opacity="0.2">
<path d="M29.8289 63.9665L61.6731 60.0565L60.8911 53.6877L29.0469 57.5977L29.8289 63.9665Z" fill="#2A902B"/>
<path d="M60.1086 47.3187L28.2644 51.2287L27.4824 44.8599L59.3266 40.9499L60.1086 47.3187Z" fill="#2A902B"/>
<path d="M26.7009 38.4909L39.4386 36.9269L38.6566 30.5581L25.9189 32.1221L26.7009 38.4909Z" fill="#2A902B"/>
<path fill-rule="evenodd" clip-rule="evenodd" d="M20.3882 13.4066C15.1121 14.0544 11.3601 18.8567 12.008 24.1328L17.4819 68.7147C18.1298 73.991 22.9321 77.7428 28.2082 77.095L66.4212 72.403C71.6975 71.7552 75.4493 66.953 74.8015 61.6768L70.8915 29.8326C69.3799 17.5216 58.1745 8.76702 45.8636 10.2786L20.3882 13.4066ZM21.1702 19.7754L43.4611 17.0385L45.4161 32.9605L64.5226 30.6146L68.4326 62.4587C68.6486 64.2175 67.398 65.8182 65.6392 66.0342L27.4262 70.7261C25.6675 70.9421 24.0667 69.6915 23.8508 67.9327L18.3768 23.3509C18.1609 21.5922 19.4115 19.9914 21.1702 19.7754ZM49.8691 16.575C55.128 16.9865 59.7942 19.9756 62.4159 24.4084L51.003 25.8097L49.8691 16.575Z" fill="#2A902B"/>
</g>
</svg>
